<?xml version="1.0" standalone="no"?>
<!DOCTYPE svg PUBLIC "-//W3C//DTD SVG 20010904//EN"
 "http://www.w3.org/TR/2001/REC-SVG-20010904/DTD/svg10.dtd">
<svg version="1.0" xmlns="http://www.w3.org/2000/svg"
 width="96.000000pt" height="96.000000pt" viewBox="0 0 96.000000 96.000000"
 preserveAspectRatio="xMidYMid meet">
<metadata>
Created by potrace 1.14, written by Peter Selinger 2001-2017
</metadata>
<g transform="translate(0.000000,96.000000) scale(0.100000,-0.100000)"
fill="#000000" stroke="none">
<path d="M346 840 c-11 -10 -39 -27 -62 -38 -53 -27 -118 -93 -144 -147 -11
-24 -28 -49 -36 -55 -20 -17 -20 -163 0 -180 8 -6 25 -31 36 -55 26 -54 91
-120 144 -147 23 -11 49 -27 58 -36 11 -9 42 -16 80 -17 47 -2 75 -10 111 -30
113 -64 279 -10 327 106 19 45 -14 106 -82 153 -17 12 -20 18 -10 28 7 7 12
42 12 88 0 64 -3 80 -20 95 -11 10 -20 23 -20 29 0 26 -70 110 -120 143 -30
20 -68 46 -85 57 -39 27 -157 30 -189 6z m-57 -181 c-33 -33 -50 -42 -81 -44
-21 -1 -41 2 -44 6 -14 23 73 122 131 152 l30 15 3 -43 c3 -40 -1 -48 -39 -86z
m361 54 c36 -39 60 -76 60 -91 0 -5 -20 -8 -44 -7 -37 1 -50 8 -85 42 -36 35
-41 45 -41 87 l0 46 38 -19 c20 -11 53 -37 72 -58z m-161 -33 c69 -19 123 -93
123 -166 0 -64 -9 -81 -49 -95 -20 -6 -56 -29 -79 -51 -40 -37 -46 -39 -83
-33 -83 14 -144 91 -143 179 3 122 112 200 231 166z m-198 -318 c34 -35 39
-45 39 -86 l0 -46 -38 19 c-39 20 -101 81 -122 121 -29 55 64 48 121 -8z m443
21 c41 -20 75 -52 92 -85 13 -24 13 -32 0 -55 -17 -34 -51 -66 -91 -86 -93
-46 -224 -5 -271 86 -13 23 -13 31 0 55 47 91 177 132 270 85z"/>
<path d="M372 610 c-76 -46 -71 -164 9 -206 38 -19 78 -18 116 6 40 24 55 53
55 101 -1 49 -16 75 -55 99 -41 25 -83 25 -125 0z m102 -21 c34 -16 56 -64 46
-100 -12 -40 -16 -45 -50 -59 -75 -31 -149 44 -113 117 22 47 69 64 117 42z"/>
<path d="M606 314 c-25 -24 -24 -58 1 -86 23 -26 58 -22 83 10 21 25 21 27 3
31 -27 5 -43 21 -43 42 0 23 -23 25 -44 3z"/>
</g>
</svg>
